PathFileType	3	(X/Y/Z)	C:\Users\koon_\Desktop\
DataRate	CameraRate	NumFrames	NumMarkers	Units	OrigDataRate	OrigDataStartFrame	OrigNumFrames
100.0	100.0	10	27	mm	100.0	2378	3804	
Frame#	Time	get:LFHD			get:RFHD			get:LBHD			get:RBHD			get:C7			get:T10			get:CLAV			get:STRN			get:RBAK			get:LSHO			get:LUPA			get:LELB			get:LFRA			get:LWRA			get:LWRB			get:LFIN			get:RSHO			get:RUPA			get:RELB			get:RFRA			get:RWRA			get:RWRB			get:RFIN			get:LASI			get:RASI			get:LPSI			get:RPSI			
		X1	Y1	Z1	X2	Y2	Z2	X3	Y3	Z3	X4	Y4	Z4	X5	Y5	Z5	X6	Y6	Z6	X7	Y7	Z7	X8	Y8	Z8	X9	Y9	Z9	X10	Y10	Z10	X11	Y11	Z11	X12	Y12	Z12	X13	Y13	Z13	X14	Y14	Z14	X15	Y15	Z15	X16	Y16	Z16	X17	Y17	Z17	X18	Y18	Z18	X19	Y19	Z19	X20	Y20	Z20	X21	Y21	Z21	X22	Y22	Z22	X23	Y23	Z23	X24	Y24	Z24	X25	Y25	Z25	X26	Y26	Z26	X27	Y27	Z27	
2378	23.77	188.82823	1438.6791	-33.719063	96.481621	1428.7817	72.730682	51.80344	1442.6436	-121.01871	-34.917866	1408.8225	-25.232391	-6.9420791	1246.2839	-96.239449	-98.100128	1064.5073	-137.77824	146.08243	1122.1178	-12.710731	121.16479	929.29742	-26.885485	-83.994415	1183.3074	-30.656219	133.90024	1230.061	-155.01295	224.88695	1122.8231	-201.51744	313.84021	952.01703	-177.75241	385.72751	951.9162	-50.355888	411.01917	942.1629	29.80549	438.39581	875.20502	-17.264423	501.39575	937.92188	20.102512	18.772495	1219.0734	58.110504	67.538399	1062.032	187.07254	69.026718	941.25946	241.61476	150.78084	975.70776	265.11926	295.91962	931.92511	306.2431	263.68872	864.57562	332.23773	316.79178	914.26788	392.25919	99.298721	803.61469	-170.14449	-59.13113	781.9975	42.528034	-128.57782	843.10352	-236.05196	-183.27242	842.3642	-162.06102
2379	23.78	190.16614	1434.7079	-33.941204	98.082146	1424.9956	72.841171	52.879837	1438.5026	-120.76513	-33.503647	1404.8873	-24.73757	-5.5924292	1242.811	-95.777657	-97.760429	1061.7202	-137.882	147.02019	1117.8204	-12.473741	121.5802	925.61499	-27.335512	-82.750214	1179.8986	-30.157396	135.31744	1226.1321	-154.41479	226.71666	1119.5262	-200.50256	316.71503	949.24036	-176.48842	389.74609	948.19708	-49.54641	415.68277	937.87976	30.337599	442.66534	870.97626	-17.48728	505.9201	933.05219	20.124578	20.39226	1215.2751	58.315262	71.031769	1060.5562	187.50624	74.622543	940.32043	243.19247	157.30852	974.06653	266.03824	302.05386	927.45575	306.81326	268.70648	860.62689	332.82135	323.21909	909.2738	392.81625	98.795441	800.94562	-171.46547	-59.214451	779.07153	41.237911	-129.28366	839.84363	-237.03859	-183.92599	838.96399	-162.96158
2380	23.79	191.51677	1430.6588	-34.098072	99.758293	1421.0105	72.949722	54.037083	1434.2172	-120.68003	-32.174648	1400.6896	-23.908323	-4.1358557	1239.2947	-95.590294	-97.321571	1058.8032	-138.12312	147.93553	1113.2964	-12.246739	120.69338	921.11725	-28.079235	-81.487793	1176.4011	-29.667906	136.79739	1222.0813	-153.66684	228.69577	1116.0509	-199.38354	319.85669	946.59241	-174.83813	394.02722	944.35162	-48.3699	420.62308	933.43817	31.150648	446.8461	866.62732	-17.236591	510.83463	927.97955	20.402655	22.0427	1211.2837	58.406376	74.683678	1059.149	187.74246	80.372131	939.49042	244.48798	164.10176	972.54321	266.9317	308.25388	922.53284	307.62692	273.5885	856.52167	333.53223	329.45706	903.73877	393.38516	98.256325	798.24713	-172.75861	-59.336193	775.97211	39.969982	-130.01982	836.44653	-238.05399	-184.75581	835.41846	-163.98268
2381	23.8	193.01176	1426.3973	-34.233295	101.40433	1416.8748	73.007347	55.234318	1429.6344	-120.40334	-30.648058	1396.2355	-23.727524	-2.7189353	1235.6674	-95.265724	-96.936401	1055.8149	-138.43669	148.83542	1108.6285	-11.979072	120.42093	916.75665	-28.691351	-80.248306	1172.7814	-29.255976	138.40042	1217.8883	-152.8847	230.78264	1112.5839	-198.01695	323.27417	943.99249	-172.89732	398.68726	940.29089	-46.982109	425.89804	928.65015	32.268353	451.2319	862.01965	-16.611998	516.12396	922.43011	20.942747	23.613096	1207.1538	58.626179	78.41124	1057.9669	187.8661	86.431839	938.86658	245.87845	171.26678	971.24011	267.85046	314.59476	917.10175	308.72208	278.33224	851.95197	334.30261	335.65176	897.50476	394.67514	97.684166	795.5191	-174.10904	-59.877926	772.63062	39.042404	-130.94493	832.98047	-239.24475	-185.49565	831.76758	-165.03894
2382	23.81	194.41949	1421.9888	-34.305485	103.07635	1412.6436	73.165382	56.466404	1424.9565	-120.17336	-29.168087	1391.6365	-23.296278	-1.2584116	1232.0055	-95.098663	-96.535782	1052.7485	-138.76497	149.65034	1103.7147	-11.681503	119.07179	911.46857	-29.493004	-79.140259	1169.1149	-28.836571	140.03757	1213.5024	-152.0365	232.99347	1109.0483	-196.59644	327.05786	941.3855	-170.60751	403.59131	936.05457	-45.161568	431.66312	923.40216	33.662796	455.89612	857.00732	-15.741175	521.74896	916.45129	21.731487	25.180845	1202.8247	58.727879	82.318504	1057.0424	187.97722	92.725143	938.59357	247.57434	178.96768	970.13147	268.88669	320.96637	911.07898	310.22363	282.54459	847.03662	335.62488	341.4201	890.4599	395.78983	96.999809	792.60242	-175.53116	-60.237766	769.38306	37.893017	-131.75612	829.27087	-240.24373	-186.36932	828.01709	-166.15793
2383	23.82	195.93483	1417.3948	-34.390232	104.80486	1408.2908	73.38707	57.756165	1420.1405	-119.938	-27.672253	1387.0415	-22.721773	0.22376421	1227.9047	-94.547539	-96.177429	1049.4438	-138.83145	150.40993	1098.6785	-11.305094	120.12652	907.46295	-29.639307	-78.031647	1165.2365	-28.430258	141.59535	1208.9375	-151.01057	235.28419	1105.598	-194.82286	331.10303	938.97021	-167.636	409.05185	931.45251	-42.911446	437.85187	917.57898	35.475147	460.80167	851.46619	-14.727386	527.97601	909.87903	22.644529	26.676329	1198.4116	58.781055	86.448524	1056.5479	187.91957	99.646538	938.96234	248.76099	187.26126	969.35187	269.78308	327.30219	904.50848	311.97961	286.41354	841.79974	336.92831	346.63055	882.23151	398.46591	95.945549	789.4715	-176.8493	-60.829685	766.01849	36.687889	-132.6855	825.5755	-241.52493	-187.25005	824.23633	-167.40475
2384	23.83	197.47137	1412.5902	-34.393288	106.50987	1403.7572	73.628517	59.066277	1415.2944	-119.64764	-26.17906	1382.4615	-22.159487	1.5889723	1223.8538	-94.199005	-95.821228	1046.0215	-138.77551	151.18973	1093.588	-10.885617	120.32584	903.11853	-30.057318	-76.838333	1161.1371	-28.046553	143.11119	1204.3214	-150.02115	237.62003	1102.3052	-192.83836	335.45108	936.75378	-164.508	415.08914	926.62769	-40.169952	444.61447	911.25861	37.624424	466.00131	845.3562	-13.526037	534.40045	902.40057	23.571932	28.045023	1194.1947	58.827965	90.698402	1056.4165	187.61485	107.2486	939.41516	247.79214	195.78819	968.53619	270.40543	333.61185	897.8042	313.92221	289.76251	836.53522	338.00107	351.58154	874.3092	399.69772	95.560272	786.5152	-178.38216	-61.356827	762.55334	35.398853	-133.51547	821.68359	-242.7028	-188.11458	820.29016	-168.65263
2385	23.84	198.93117	1407.6233	-34.308968	108.22858	1399.1165	73.812637	60.394924	1410.3495	-119.17426	-24.74836	1377.8829	-21.595074	2.8815532	1219.8932	-94.473366	-95.234871	1042.9414	-140.07068	151.87254	1088.4443	-10.544988	119.83342	898.21075	-30.679825	-75.633942	1156.9131	-27.622513	144.55905	1199.5736	-149.08325	239.96175	1099.2062	-190.65134	340.09814	935.05963	-160.58366	421.55045	921.6651	-36.915688	451.87973	904.47888	40.160049	471.26367	838.9201	-12.254834	541.15656	893.66858	24.817144	29.58967	1189.8098	58.792789	95.074287	1056.4476	187.14101	114.58254	940.09271	248.1871	204.27271	967.7749	270.49823	339.00342	890.88678	315.80392	292.42572	831.51898	339.12976	355.14227	866.20117	401.92993	94.878075	783.36176	-179.88052	-61.965683	759.04199	34.186924	-134.4034	817.74847	-244.00638	-188.93233	816.26288	-169.89589
2386	23.85	200.405	1402.588	-34.274742	109.83411	1394.2527	74.126213	61.617573	1405.5508	-118.87979	-23.369841	1373.2325	-20.988186	4.080409	1215.3623	-93.882065	-94.840027	1039.4248	-140.48215	152.6378	1083.2977	-10.243557	118.61527	892.91602	-31.811335	-74.393272	1152.6329	-27.100983	145.80492	1194.7034	-148.13141	242.27452	1096.2802	-188.22701	344.96146	933.87134	-156.00412	428.35895	916.70587	-33.216637	459.49249	897.20087	42.946178	476.63464	832.29419	-11.04578	548.31085	884.76501	25.75893	31.154198	1185.3958	58.844063	99.567635	1056.3005	186.47997	121.79254	940.63873	247.8414	212.27277	966.90295	270.04926	343.50284	884.13226	317.74307	294.18558	826.88477	340.66589	357.77359	858.54102	404.02853	94.252007	780.19586	-181.27559	-62.478939	755.41998	32.749367	-135.17181	813.83716	-245.38589	-189.73267	812.24902	-171.3221
2387	23.86	201.73654	1397.5887	-34.215015	111.36363	1389.3263	74.348366	62.757515	1400.6021	-118.49281	-22.019114	1368.4185	-20.468882	5.3171949	1210.9989	-93.819	-94.36515	1035.8969	-140.91409	153.37134	1078.1165	-10.047156	118.50108	888.2663	-32.168381	-73.061775	1148.3405	-26.732885	146.98694	1189.823	-147.24367	244.49538	1093.5538	-185.73419	349.71326	933.14972	-150.92436	435.17947	911.70502	-29.342237	467.25937	889.51239	45.766369	481.96173	825.59918	-10.135601	555.68298	875.07605	26.962412	32.931396	1181.0461	58.811012	104.21463	1055.8551	185.3804	128.69882	940.79578	247.15547	219.71429	965.92358	269.02243	347.17337	877.77783	319.63217	295.54422	822.85815	341.83392	359.55032	851.70697	406.09906	93.672806	776.94702	-182.67802	-63.228397	751.64075	31.514019	-135.87837	809.99152	-246.87988	-190.45938	808.13458	-172.75383
